<?xml version="1.0" encoding="UTF-8" standalone="no"?>
<!-- Generator: Adobe Illustrator 15.0.2, SVG Export Plug-In . SVG Version: 6.00 Build 0)  -->

<svg
   xmlns:ns1="&amp;ns_vars;"
   xmlns:ns="&amp;ns_ai;"
   xmlns:dc="http://purl.org/dc/elements/1.1/"
   xmlns:cc="http://creativecommons.org/ns#"
   xmlns:rdf="http://www.w3.org/1999/02/22-rdf-syntax-ns#"
   xmlns:svg="http://www.w3.org/2000/svg"
   xmlns="http://www.w3.org/2000/svg"
   xmlns:xlink="http://www.w3.org/1999/xlink"
   xmlns:sodipodi="http://sodipodi.sourceforge.net/DTD/sodipodi-0.dtd"
   xmlns:inkscape="http://www.inkscape.org/namespaces/inkscape"
   version="1.1"
   ns:viewOrigin="37 796.7852"
   ns:rulerOrigin="-37 -45.1055"
   ns:pageBounds="37 796.7852 558.2803 45.1055"
   x="0px"
   y="0px"
   width="403.53888"
   height="622.48413"
   viewBox="0 0 403.53886 622.48414"
   enable-background="new 0 0 521.28 751.68"
   xml:space="preserve"
   id="svg3432"
   inkscape:version="0.91 r13725"
   sodipodi:docname="viglug-new2.svg"><defs
     id="defs3441"><linearGradient
       inkscape:collect="always"
       id="linearGradient5950"><stop
         style="stop-color:#626362;stop-opacity:1"
         offset="0"
         id="stop5952" /><stop
         style="stop-color:#5b5c5b;stop-opacity:0;"
         offset="1"
         id="stop5954" /></linearGradient><linearGradient
       inkscape:collect="always"
       xlink:href="#linearGradient5950"
       id="linearGradient5956"
       x1="257.04315"
       y1="412.10919"
       x2="-393.00616"
       y2="412.10919"
       gradientUnits="userSpaceOnUse" /></defs><sodipodi:namedview
     pagecolor="#ffffff"
     bordercolor="#666666"
     borderopacity="1"
     objecttolerance="10"
     gridtolerance="10"
     guidetolerance="10"
     inkscape:pageopacity="0"
     inkscape:pageshadow="2"
     inkscape:window-width="1920"
     inkscape:window-height="1016"
     id="namedview3439"
     showgrid="false"
     inkscape:zoom="1"
     inkscape:cx="143.60542"
     inkscape:cy="292.00238"
     inkscape:window-x="0"
     inkscape:window-y="27"
     inkscape:window-maximized="1"
     inkscape:current-layer="g5958"
     fit-margin-top="0"
     fit-margin-left="0"
     fit-margin-right="0"
     fit-margin-bottom="0" /><metadata
     id="metadata3434"><ns1:variableSets><ns1:variableSet
         varSetName="binding1"
         locked="none"><ns1:variables /><ns1:sampleDataSets /></ns1:variableSet></ns1:variableSets><rdf:RDF><cc:Work
         rdf:about=""><dc:format>image/svg+xml</dc:format><dc:type
           rdf:resource="http://purl.org/dc/dcmitype/StillImage" /><dc:title></dc:title></cc:Work></rdf:RDF></metadata><g
     id="g5958"
     transform="translate(-59.032503,-59.695852)"><path
       sodipodi:nodetypes="ccc"
       inkscape:connector-curvature="0"
       id="path4272"
       d="m 305.328,163.13399 c 49.27567,21.04688 97.82319,38.20806 151.672,73.546 -30.73104,10.9685 -61.11151,19.69548 -92.97601,33.49761"
       style="fill:#df6f0c;fill-opacity:1;fill-rule:evenodd;stroke:#000000;stroke-width:5;stroke-linecap:butt;stroke-linejoin:miter;stroke-miterlimit:4;stroke-dasharray:none;stroke-opacity:1" /><path
       sodipodi:nodetypes="csccccccc"
       inkscape:connector-curvature="0"
       d="m 115.99987,679.67999 c 0,0 -2.27745,-8.57756 -3.44932,-15.07886 -1.01216,-5.61525 -2.02062,-12.281 -2.97313,-19.86808 C 108.37828,641.27913 74.991316,664.86417 64,679.67999 Z m 1.3e-4,0 c -15.64858,-49.54098 -46.695116,-424.2609 140,-548 75.81363,14.63091 180.73231,204.1388 139,548 z"
       style="fill:url(#linearGradient5956);fill-opacity:1;fill-rule:evenodd;stroke:#000000;stroke-width:5;stroke-linecap:butt;stroke-linejoin:miter;stroke-miterlimit:10;stroke-dasharray:none;stroke-opacity:1"
       id="path3443-0" /><path
       sodipodi:nodetypes="ccc"
       inkscape:connector-curvature="0"
       id="path4270"
       d="m 173,336.67999 c -7.66359,76.55183 3.89225,146.26573 32,207 36.98741,-98.83257 30.25707,-198.11639 23,-212.97255"
       style="fill:none;fill-rule:evenodd;stroke:#000000;stroke-width:5;stroke-linecap:butt;stroke-linejoin:miter;stroke-miterlimit:4;stroke-dasharray:none;stroke-opacity:1" /><ellipse
       transform="matrix(0.79178517,-0.61079968,0.61079968,0.79178517,0,0)"
       cx="91.366272"
       cy="335.80002"
       rx="32.084095"
       ry="39.511047"
       id="path4276"
       style="opacity:1;fill:#ffffff;fill-opacity:1;stroke:#000000;stroke-width:5;stroke-linecap:butt;stroke-linejoin:miter;stroke-miterlimit:4;stroke-dasharray:none;stroke-dashoffset:0;stroke-opacity:1" /><circle
       r="15.792551"
       cy="196.6684"
       cx="283.92508"
       id="path4284"
       style="opacity:1;fill:#000000;fill-opacity:1;stroke:#000000;stroke-width:5;stroke-linecap:butt;stroke-linejoin:miter;stroke-miterlimit:4;stroke-dasharray:none;stroke-dashoffset:0;stroke-opacity:1" /><path
       sodipodi:nodetypes="cc"
       inkscape:connector-curvature="0"
       id="path4324"
       d="m 457,236.67999 -109,-6"
       style="fill:none;fill-rule:evenodd;stroke:#000000;stroke-width:5;stroke-linecap:butt;stroke-linejoin:miter;stroke-miterlimit:4;stroke-dasharray:none;stroke-opacity:1" /><path
       sodipodi:nodetypes="cccc"
       inkscape:connector-curvature="0"
       id="path3443-4"
       d="m 381.14894,322.10881 c 22.53906,89.28131 31.87928,209.02325 13.85093,357.57118 l -119.27891,0 C 270.51325,525.88577 311.03464,339.09545 381.14894,322.10881 Z"
       style="fill:#ffffff;fill-rule:evenodd;stroke:#000000;stroke-width:5;stroke-linecap:butt;stroke-linejoin:round;stroke-miterlimit:4;stroke-dasharray:none;stroke-opacity:1" /><path
       sodipodi:nodetypes="ccc"
       inkscape:connector-curvature="0"
       id="path4278"
       d="m 275.85838,679.67999 c 64.56833,-41.00319 132.04335,-44.97018 164.14162,0 z"
       style="fill:#df700c;fill-opacity:1;fill-rule:evenodd;stroke:#000000;stroke-width:5;stroke-linecap:butt;stroke-linejoin:miter;stroke-miterlimit:4;stroke-dasharray:none;stroke-opacity:1" /><path
       sodipodi:nodetypes="cccccccccc"
       inkscape:connector-curvature="0"
       id="path3443-5"
       d="m 267,68.679993 c -16.24342,11.104368 -78.16491,47.266447 -67.39451,115.106517 16.12661,-20.13121 34.80455,-37.79706 56.39438,-52.10652 15.714,3.03257 32.6784,13.57811 49.32814,31.45386 -2.29555,-10.87314 -9.88875,-25.0171 -10.35847,-34.57886 7.08917,3.30668 11.62924,3.46575 16.82523,5.26539 -9.67138,-18.85109 -17.51695,-22.99743 -25.62208,-28.97596 5.89581,-8.259569 20.80009,-10.178625 31.2562,-14.825138 C 299.85195,82.944873 277.09025,86.203513 255,93.679993 c 3.36808,-11.783291 3.56811,-11.8134 12,-25 z"
       style="fill:#d46714;fill-opacity:1;fill-rule:evenodd;stroke:#000000;stroke-width:5;stroke-linecap:butt;stroke-linejoin:miter;stroke-miterlimit:10;stroke-dasharray:none;stroke-opacity:1" /><path
       sodipodi:nodetypes="cccc"
       inkscape:connector-curvature="0"
       id="path3443-5-8"
       d="m 222.46248,105.6263 c -15.82025,18.80016 -28.19023,44.56532 -22.85666,78.16018 9.01556,-11.25433 18.82851,-21.73815 29.50183,-31.29577 -1.72322,-7.89763 -5.42927,-35.92122 -6.64517,-46.86441 z"
       style="fill:#b31f1d;fill-opacity:1;fill-rule:evenodd;stroke:#000000;stroke-width:5;stroke-linecap:butt;stroke-linejoin:miter;stroke-miterlimit:10;stroke-dasharray:none;stroke-opacity:1" /><path
       sodipodi:nodetypes="cccccccc"
       inkscape:connector-curvature="0"
       id="path3443-5-5"
       d="m 256.00021,131.67996 c 15.714,3.03257 32.67806,13.57828 49.32779,31.45403 -2.29555,-10.87314 -9.8884,-25.01727 -10.35812,-34.57903 7.08916,3.30668 11.62923,3.46575 16.82522,5.26539 -9.67138,-18.85109 -17.51694,-22.99743 -25.62207,-28.97596 5.89581,-8.259567 20.80008,-10.178623 31.25619,-14.825136 -13.95718,-5.61752 -30.86806,-4.599635 -48.30154,-0.1988 -1.88776,3.498345 -11.04481,29.397166 -13.12747,41.859506 z"
       style="fill:#d89f13;fill-opacity:1;fill-rule:evenodd;stroke:#000000;stroke-width:5;stroke-linecap:butt;stroke-linejoin:miter;stroke-miterlimit:10;stroke-dasharray:none;stroke-opacity:1" /></g></svg>